<mxfile host="app.diagrams.net" modified="2022-02-18T06:55:04.737Z" agent="5.0 (Macintosh; Intel Mac OS X 10_15_7) AppleWebKit/537.36 (KHTML, like Gecko) Chrome/98.0.4758.80 Safari/537.36" etag="uKjHglUGnmTf0aECbIm2" version="16.5.6" type="github">
  <diagram id="VUDAtVDWC4SofEC2M_kq" name="Page-1">
    <mxGraphModel dx="718" dy="1154" grid="1" gridSize="10" guides="1" tooltips="1" connect="1" arrows="1" fold="1" page="1" pageScale="1" pageWidth="827" pageHeight="1169" math="0" shadow="0">
      <root>
        <mxCell id="0" />
        <mxCell id="1" parent="0" />
        <mxCell id="gCaHHMr5PJ9PlE00TOQy-1" value="结束" style="rounded=1;whiteSpace=wrap;html=1;" vertex="1" parent="1">
          <mxGeometry x="320" y="750" width="120" height="60" as="geometry" />
        </mxCell>
        <mxCell id="gCaHHMr5PJ9PlE00TOQy-7" value="" style="edgeStyle=orthogonalEdgeStyle;rounded=0;orthogonalLoop=1;jettySize=auto;html=1;" edge="1" parent="1" source="gCaHHMr5PJ9PlE00TOQy-2" target="gCaHHMr5PJ9PlE00TOQy-6">
          <mxGeometry relative="1" as="geometry" />
        </mxCell>
        <mxCell id="gCaHHMr5PJ9PlE00TOQy-2" value="小组/共享恢复回收站" style="rounded=1;whiteSpace=wrap;html=1;" vertex="1" parent="1">
          <mxGeometry x="320" y="170" width="120" height="60" as="geometry" />
        </mxCell>
        <mxCell id="gCaHHMr5PJ9PlE00TOQy-9" value="" style="edgeStyle=orthogonalEdgeStyle;rounded=0;orthogonalLoop=1;jettySize=auto;html=1;" edge="1" parent="1" source="gCaHHMr5PJ9PlE00TOQy-6" target="gCaHHMr5PJ9PlE00TOQy-8">
          <mxGeometry relative="1" as="geometry" />
        </mxCell>
        <mxCell id="gCaHHMr5PJ9PlE00TOQy-6" value="获取小组共享表" style="rounded=0;whiteSpace=wrap;html=1;" vertex="1" parent="1">
          <mxGeometry x="320" y="270" width="120" height="60" as="geometry" />
        </mxCell>
        <mxCell id="gCaHHMr5PJ9PlE00TOQy-11" value="" style="edgeStyle=orthogonalEdgeStyle;rounded=0;orthogonalLoop=1;jettySize=auto;html=1;" edge="1" parent="1" source="gCaHHMr5PJ9PlE00TOQy-8" target="gCaHHMr5PJ9PlE00TOQy-10">
          <mxGeometry relative="1" as="geometry" />
        </mxCell>
        <mxCell id="gCaHHMr5PJ9PlE00TOQy-8" value="查询出创建人是本人的指定小组编号下的所有 flag = 2 的文件" style="whiteSpace=wrap;html=1;rounded=0;" vertex="1" parent="1">
          <mxGeometry x="320" y="370" width="120" height="60" as="geometry" />
        </mxCell>
        <mxCell id="gCaHHMr5PJ9PlE00TOQy-13" value="" style="edgeStyle=orthogonalEdgeStyle;rounded=0;orthogonalLoop=1;jettySize=auto;html=1;" edge="1" parent="1" source="gCaHHMr5PJ9PlE00TOQy-10" target="gCaHHMr5PJ9PlE00TOQy-12">
          <mxGeometry relative="1" as="geometry" />
        </mxCell>
        <mxCell id="gCaHHMr5PJ9PlE00TOQy-10" value="修改文件 flag =1 恢复文件状态" style="whiteSpace=wrap;html=1;rounded=0;" vertex="1" parent="1">
          <mxGeometry x="320" y="460" width="120" height="60" as="geometry" />
        </mxCell>
        <mxCell id="gCaHHMr5PJ9PlE00TOQy-15" value="" style="edgeStyle=orthogonalEdgeStyle;rounded=0;orthogonalLoop=1;jettySize=auto;html=1;" edge="1" parent="1" source="gCaHHMr5PJ9PlE00TOQy-12" target="gCaHHMr5PJ9PlE00TOQy-14">
          <mxGeometry relative="1" as="geometry" />
        </mxCell>
        <mxCell id="gCaHHMr5PJ9PlE00TOQy-12" value="根据&lt;span style=&quot;color: rgb(0 , 128 , 0) ; font-weight: bold ; background-color: rgb(255 , 255 , 255) ; font-family: &amp;#34;jetbrains mono&amp;#34; , monospace ; font-size: 9.8pt&quot;&gt;ssxzbh 和&amp;nbsp;&lt;/span&gt;&lt;span style=&quot;color: rgb(0 , 128 , 0) ; font-weight: bold ; background-color: rgb(255 , 255 , 255) ; font-family: &amp;#34;jetbrains mono&amp;#34; , monospace ; font-size: 9.8pt&quot;&gt;recycleno 删除通知信息&lt;/span&gt;" style="whiteSpace=wrap;html=1;rounded=0;" vertex="1" parent="1">
          <mxGeometry x="320" y="550" width="120" height="60" as="geometry" />
        </mxCell>
        <mxCell id="gCaHHMr5PJ9PlE00TOQy-16" value="" style="edgeStyle=orthogonalEdgeStyle;rounded=0;orthogonalLoop=1;jettySize=auto;html=1;" edge="1" parent="1" source="gCaHHMr5PJ9PlE00TOQy-14" target="gCaHHMr5PJ9PlE00TOQy-1">
          <mxGeometry relative="1" as="geometry" />
        </mxCell>
        <mxCell id="gCaHHMr5PJ9PlE00TOQy-14" value="返回恢复的数据列表" style="whiteSpace=wrap;html=1;rounded=0;" vertex="1" parent="1">
          <mxGeometry x="320" y="650" width="120" height="60" as="geometry" />
        </mxCell>
      </root>
    </mxGraphModel>
  </diagram>
</mxfile>
